<?xml version="1.0" encoding="UTF-8"?>
<svg version="1.1" xmlns="http://www.w3.org/2000/svg" width="1000" height="1000"> <!-- Increased SVG canvas size -->
    <path
            d="M0 0 C0.75980164 -0.00807175 1.51960327 -0.01614349 2.3024292 -0.02445984 C3.91302205 -0.03830013 5.52364422 -0.04902254 7.13427734 -0.05688477 C9.5861861 -0.07405635 12.0367316 -0.11793509 14.48828125 -0.16210938 C16.0546776 -0.17224031 17.62108541 -0.18075516 19.1875 -0.1875 C19.91584045 -0.20500809 20.64418091 -0.22251617 21.39459229 -0.24055481 C26.54297956 -0.218846 29.37943533 1.03320363 33.359375 4.23828125 C35.625 6.5625 35.625 6.5625 37.609375 8.92578125 C40.12051339 12.04396701 40.12051339 12.04396701 43.359375 14.23828125 C45.98617052 14.34670468 48.59118739 14.3996332 51.21875 14.4140625 C52.82553381 14.4372693 54.43230468 14.46138698 56.0390625 14.48632812 C58.57137606 14.5213766 61.10321612 14.55074852 63.63574219 14.56420898 C66.08066272 14.57974671 68.52419834 14.61999917 70.96875 14.6640625 C71.71896423 14.66215408 72.46917847 14.66024567 73.24212646 14.65827942 C78.40326531 14.77751089 81.38687484 15.96633995 85.359375 19.23828125 C86.05686083 20.55575449 86.72897457 21.88742318 87.359375 23.23828125 C88.68405246 23.92198575 90.01801133 24.58792311 91.359375 25.23828125 C94.39406628 28.44939329 94.74401139 30.75081037 94.77929688 35.10498047 C94.80316467 36.87734573 94.80316467 36.87734573 94.82751465 38.68551636 C94.82771606 39.95847565 94.82791748 41.23143494 94.828125 42.54296875 C94.83954529 44.51077805 94.83954529 44.51077805 94.85119629 46.51834106 C94.86463176 49.29405265 94.8662147 52.06947988 94.86035156 54.84521484 C94.85446173 58.39190757 94.88501822 61.93722836 94.92546844 65.48365593 C94.95763262 68.87846945 94.9532291 72.27300344 94.953125 75.66796875 C94.96952026 76.93687958 94.98591553 78.20579041 95.00280762 79.51315308 C94.92590261 89.33044327 94.92590261 89.33044327 91.94726562 93.02392578 C87.58951932 96.75267663 84.10731935 96.39226566 78.58276367 96.39941406 C77.67366745 96.40437897 76.76457123 96.40934387 75.82792664 96.41445923 C72.81105806 96.42910145 69.79424207 96.43588654 66.77734375 96.44140625 C64.6846771 96.44715634 62.59201048 96.45291409 60.49934387 96.4586792 C56.10690057 96.46919528 51.71447561 96.47503386 47.32202148 96.47851562 C41.69278897 96.48399934 36.06379846 96.50802228 30.43464184 96.53648758 C26.11008496 96.55510951 21.7855864 96.56031934 17.46099281 96.5618515 C15.38575226 96.56487994 13.31051278 96.57291487 11.23531151 96.58603668 C8.3314104 96.6030865 5.42810075 96.60121937 2.52416992 96.59472656 C1.66631897 96.60394135 0.80846802 96.61315613 -0.07537842 96.62265015 C-5.86189761 96.58210987 -9.13041645 95.61970287 -13.42687988 91.54367065 C-15.17867803 88.21630247 -15.07503083 85.02395672 -15.06054688 81.35205078 C-15.06901642 80.56131165 -15.07748596 79.77057251 -15.08621216 78.95587158 C-15.10959441 76.34411494 -15.11060396 73.73294711 -15.109375 71.12109375 C-15.11647648 69.30272181 -15.12417546 67.48435211 -15.13244629 65.66598511 C-15.14589436 61.85457125 -15.1474587 58.04336454 -15.14160156 54.23193359 C-15.13570892 49.3536387 -15.16627709 44.47634022 -15.20671844 39.59823799 C-15.23260228 35.84234282 -15.23547218 32.08668724 -15.23182678 28.33071518 C-15.23351778 26.53260674 -15.24315843 24.73448722 -15.26097107 22.93646622 C-15.2831724 20.41807193 -15.27345419 17.90168973 -15.25585938 15.38330078 C-15.26912262 14.64439606 -15.28238586 13.90549133 -15.29605103 13.14419556 C-15.20348896 7.42613865 -13.55631869 5.10384837 -9.640625 1.23828125 C-6.57895911 -0.29255169 -3.36168578 0.03371983 0 0 Z "
            fill="#55ACED"
            transform="translate(50,150) scale(10)" />
</svg>
