<?xml version="1.0" encoding="UTF-8"?>
<svg version="1.1" xmlns="http://www.w3.org/2000/svg" width="1080" height="1080">
<path d="M0 0 C1.8728215 -0.00430527 1.8728215 -0.00430527 3.78347778 -0.00869751 C7.0837199 -0.01124894 10.38353082 0.00072919 13.68371582 0.01757812 C15.69081261 0.02342439 17.69751481 0.01760624 19.70458984 0.00732422 C23.59490846 -0.01133094 27.48465624 -0.00892949 31.375 0 C32.55867157 -0.00607269 33.74234314 -0.01214539 34.96188354 -0.0184021 C47.58376669 0.08710141 57.48030097 2.62639964 66.8203125 11.3984375 C69.71220544 14.71566061 72.40530492 18.18667784 75.10693359 21.65917969 C80.30650366 28.25185388 85.32328196 33.01936174 93.8203125 34.3984375 C96.13302026 34.49227226 98.4480941 34.53369843 100.76269531 34.5402832 C101.44147232 34.54375763 102.12024933 34.54723206 102.81959534 34.55081177 C104.2873173 34.55813737 105.75505012 34.56349969 107.22278595 34.56710243 C109.55289006 34.57430985 111.88278866 34.59000862 114.21282959 34.60844421 C120.83570513 34.66070818 127.45846568 34.70884656 134.08154297 34.72436523 C138.140001 34.73449543 142.19793663 34.76394409 146.25618744 34.80568504 C147.79497054 34.81792642 149.33382762 34.82312895 150.87265778 34.82088661 C162.28847668 34.80834628 170.75472055 35.97507017 179.37890625 43.87890625 C181.77427138 46.40410147 183.8203125 48.83054251 183.8203125 52.3984375 C184.5421875 52.6253125 185.2640625 52.8521875 186.0078125 53.0859375 C192.31867005 56.03100436 196.56806582 61.96396772 198.91642761 68.4046936 C200.25255727 73.35483808 200.10737624 78.32912669 200.0949707 83.42333984 C200.10008163 84.51205887 200.10519257 85.60077789 200.11045837 86.7224884 C200.12432141 90.30984036 200.1234 93.89699949 200.12109375 97.484375 C200.12498255 99.98629833 200.1293176 102.488221 200.13407898 104.99014282 C200.14153418 110.2304243 200.14139399 115.47065618 200.13598633 120.7109375 C200.13061703 126.08242989 200.13765387 131.4537337 200.15649414 136.82519531 C200.17899275 143.32368543 200.18674091 149.82201829 200.18282127 156.3205452 C200.18333353 158.79159721 200.18855322 161.26265303 200.19863319 163.73368454 C200.2110173 167.19421929 200.20419347 170.65421942 200.19262695 174.11474609 C200.20027069 175.12802475 200.20791443 176.14130341 200.21578979 177.18528748 C200.14295203 187.08196904 197.9401579 194.21314997 191.0703125 201.44921875 C183.83997889 207.71299735 175.27475208 208.54801829 166.0221405 208.54560852 C165.2556562 208.54928521 164.4891719 208.5529619 163.6994608 208.55675 C161.1410236 208.56772905 158.58262709 208.57162076 156.02416992 208.57543945 C154.18569308 208.58170832 152.3472175 208.5883555 150.50874329 208.59535217 C144.48109816 208.61633934 138.45345293 208.62674751 132.42578125 208.63671875 C130.34761352 208.64076788 128.26944592 208.64488485 126.19127846 208.64906883 C116.42933147 208.66810639 106.66739199 208.68234212 96.90543002 208.6906808 C85.64746064 208.70045721 74.38968765 208.72679337 63.13178748 208.76718169 C54.42161748 208.79735519 45.71150376 208.81215073 37.00128251 208.81546181 C31.8025412 208.81781026 26.60401006 208.82674467 21.40532494 208.85192299 C16.51411186 208.87523118 11.62324698 208.87942585 6.73199272 208.86916161 C4.94097992 208.86866686 3.14994981 208.87496926 1.35898972 208.88871765 C-16.15688194 209.01561488 -16.15688194 209.01561488 -23.1796875 204.3984375 C-24.11857425 203.78712211 -24.11857425 203.78712211 -25.07642841 203.16345692 C-30.23492634 199.29437443 -33.14826855 194.47678938 -35.1796875 188.3984375 C-35.89498757 182.89805949 -35.87525598 177.44203679 -35.8425293 171.90820312 C-35.85095522 170.25793811 -35.86148596 168.60768272 -35.87394714 166.95744324 C-35.9008794 162.50072209 -35.89632568 158.04456341 -35.88424659 153.58779716 C-35.87708918 149.8577235 -35.88563211 146.12775215 -35.89415199 142.39768648 C-35.91406729 133.59461949 -35.90857617 124.79182431 -35.88647461 115.98876953 C-35.86410684 106.92603404 -35.88172271 97.86401074 -35.91952389 88.80134249 C-35.9508111 81.00056952 -35.95865797 73.20001639 -35.94757015 65.39918852 C-35.94110078 60.74870488 -35.94300058 56.09863206 -35.96689415 51.44819641 C-35.98822393 47.07458464 -35.98006838 42.7019739 -35.94980049 38.32842445 C-35.94350016 36.72974148 -35.9472682 35.1309799 -35.96221161 33.53235435 C-36.05293114 22.96557513 -34.77266619 15.48086123 -27.43888187 7.50529289 C-19.83013923 0.02890122 -10.09358334 -0.05160747 0 0 Z " fill="#54ABED" transform="translate(128.1796875,406.6015625)"/>
<path d="M0 0 C1.8728215 -0.00430527 1.8728215 -0.00430527 3.78347778 -0.00869751 C7.0837199 -0.01124894 10.38353082 0.00072919 13.68371582 0.01757812 C15.69081261 0.02342439 17.69751481 0.01760624 19.70458984 0.00732422 C23.59490846 -0.01133094 27.48465624 -0.00892949 31.375 0 C32.55867157 -0.00607269 33.74234314 -0.01214539 34.96188354 -0.0184021 C47.58376669 0.08710141 57.48030097 2.62639964 66.8203125 11.3984375 C69.71220544 14.71566061 72.40530492 18.18667784 75.10693359 21.65917969 C80.30650366 28.25185388 85.32328196 33.01936174 93.8203125 34.3984375 C96.13302026 34.49227226 98.4480941 34.53369843 100.76269531 34.5402832 C101.44147232 34.54375763 102.12024933 34.54723206 102.81959534 34.55081177 C104.2873173 34.55813737 105.75505012 34.56349969 107.22278595 34.56710243 C109.55289006 34.57430985 111.88278866 34.59000862 114.21282959 34.60844421 C120.83570513 34.66070818 127.45846568 34.70884656 134.08154297 34.72436523 C138.140001 34.73449543 142.19793663 34.76394409 146.25618744 34.80568504 C147.79497054 34.81792642 149.33382762 34.82312895 150.87265778 34.82088661 C162.40996471 34.80821283 170.48601988 36.16436882 179.41015625 43.73828125 C181.15220929 45.78917472 181.8686449 47.89760282 182.8203125 50.3984375 C181.59455002 50.38511383 181.59455002 50.38511383 180.34402466 50.371521 C172.60648096 50.29105103 164.86914292 50.23030971 157.13128853 50.19118881 C153.15407443 50.17039949 149.17720888 50.14224269 145.20019531 50.09667969 C141.35518897 50.05290956 137.51051583 50.02923546 133.66527939 50.01892853 C132.20537961 50.01159256 130.74549607 49.99726844 129.2857399 49.97551727 C116.88306839 49.79822292 107.96505725 51.85768169 98.33203125 59.91796875 C94.95230973 63.25564086 92.18519262 66.92203028 89.36816406 70.73535156 C84.73811777 76.97361377 80.5061645 81.34000454 72.8203125 83.3984375 C69.40817261 83.63653564 69.40817261 83.63653564 65.62841797 83.62207031 C64.93480667 83.62247818 64.24119537 83.62288605 63.52656555 83.62330627 C62.02884303 83.62350291 60.53111518 83.61949832 59.03341293 83.61170197 C56.65191275 83.60140869 54.27093065 83.60690634 51.88943481 83.61712646 C45.12118404 83.64497475 38.35322476 83.65774447 31.58496094 83.62841797 C27.43446618 83.61156671 23.28489811 83.62419352 19.13449478 83.65486908 C17.56466168 83.66092157 15.99474462 83.65624339 14.42498398 83.63999176 C4.46907109 83.54127071 -3.74928382 84.47303653 -12.1796875 90.3984375 C-17.83898984 96.13626429 -21.48854794 103.02480454 -21.57197571 111.17492676 C-21.56425644 111.87283325 -21.55653717 112.57073975 -21.54858398 113.28979492 C-21.55235046 114.04517044 -21.55611694 114.80054596 -21.55999756 115.57881165 C-21.56639637 117.2063848 -21.56613183 118.83399537 -21.55981255 120.46156883 C-21.55065851 123.03845934 -21.56097276 125.61462913 -21.57643127 128.19148254 C-21.61642593 135.51297997 -21.61772731 142.83441731 -21.61547852 150.15600586 C-21.61542746 154.64460464 -21.634565 159.13281052 -21.66481209 163.62130165 C-21.67564129 166.15861425 -21.66350905 168.69517906 -21.65098572 171.23246765 C-21.65988786 172.78674055 -21.66996145 174.34100734 -21.68139648 175.89526367 C-21.67165298 176.59924286 -21.66190948 177.30322205 -21.65187073 178.02853394 C-21.7011109 181.37906651 -21.97914716 183.13229063 -24.01942444 185.84004211 C-26.92963026 187.93943982 -28.66907485 187.9212947 -32.1796875 187.3984375 C-33.83821011 186.28093815 -33.83821011 186.28093815 -35.1796875 184.3984375 C-35.56559086 181.48036098 -35.56559086 181.48036098 -35.58082581 177.84092712 C-35.58762248 177.17163337 -35.59441914 176.50233961 -35.60142177 175.81276423 C-35.62044563 173.56504201 -35.61795367 171.31786229 -35.61547852 169.07006836 C-35.62445331 167.46024879 -35.63466091 165.85043568 -35.64601135 164.2406311 C-35.6725554 159.86214339 -35.67954697 155.48383149 -35.68145871 151.1052711 C-35.68359017 148.36788206 -35.68999322 145.63053779 -35.69795036 142.89315987 C-35.72572637 133.33735439 -35.73795406 123.78167458 -35.7355957 114.22583008 C-35.73379642 105.32970669 -35.76538676 96.43413088 -35.81282669 87.53814596 C-35.85212902 79.8946543 -35.86814406 72.25134091 -35.86622947 64.60774904 C-35.86546624 60.045427 -35.87392198 55.48359065 -35.90576363 50.92136955 C-35.93493356 46.62423353 -35.93496021 42.32804283 -35.91321373 38.03087234 C-35.91009091 36.45958758 -35.91707757 34.88824272 -35.9352951 33.31706047 C-36.0490043 22.82447028 -34.71547303 15.42141541 -27.4387579 7.50429249 C-19.82775462 0.02993442 -10.09464923 -0.05161292 0 0 Z " fill="#226699" transform="translate(128.1796875,406.6015625)"/>
<path d="M0 0 C7.92 0 15.84 0 24 0 C25.21027134 4.93935527 26.41930002 9.8789859 27.62548828 14.81933594 C28.03399466 16.49105009 28.44314809 18.1626063 28.85302734 19.83398438 C31.27205388 29.70028427 33.62548201 39.57145056 35.73150635 49.51010132 C36.24565234 53.05000516 36.24565234 53.05000516 38 56 C38.16064438 55.31317642 38.32128876 54.62635284 38.48680115 53.91871643 C39.99865136 47.45779038 41.51394764 40.9976836 43.03315639 34.53848362 C43.81414219 31.21742643 44.59377443 27.89606342 45.37036133 24.57397461 C46.26245983 20.75801303 47.16035954 16.94342843 48.05859375 13.12890625 C48.3377916 11.93100967 48.61698944 10.7331131 48.90464783 9.49891663 C49.16484207 8.3978508 49.42503632 7.29678497 49.69311523 6.16235352 C49.92183823 5.18750504 50.15056122 4.21265656 50.38621521 3.20826721 C51 1 51 1 52 0 C53.63472882 -0.08700342 55.27314055 -0.10701063 56.91015625 -0.09765625 C58.39418945 -0.09282227 58.39418945 -0.09282227 59.90820312 -0.08789062 C60.94912109 -0.07951172 61.99003906 -0.07113281 63.0625 -0.0625 C64.62967773 -0.05573242 64.62967773 -0.05573242 66.22851562 -0.04882812 C68.8190666 -0.03699913 71.40950559 -0.02051689 74 0 C76.5163993 6.24769149 78.1827566 12.46367953 79.6640625 19.02734375 C80.02037247 20.57162804 80.02037247 20.57162804 80.38388062 22.14710999 C81.13608695 25.40941196 81.88115073 28.6732832 82.625 31.9375 C83.37664565 35.22654971 84.12988554 38.51520136 84.88754272 41.8028717 C85.35754091 43.84307604 85.82396654 45.88410722 86.28652954 47.92601013 C86.60223404 49.29862755 86.60223404 49.29862755 86.92431641 50.69897461 C87.108461 51.50757431 87.29260559 52.31617401 87.48233032 53.14927673 C87.83701028 55.00050826 87.83701028 55.00050826 89 56 C89.14589569 55.35742249 89.29179138 54.71484497 89.44210815 54.05279541 C90.9609173 47.36808581 92.48690831 40.68504502 94.01708984 34.00292969 C94.58729649 31.50855958 95.15566744 29.01376911 95.72216797 26.51855469 C96.53651996 22.93312405 97.35745057 19.34925449 98.1796875 15.765625 C98.55793167 14.09043793 98.55793167 14.09043793 98.94381714 12.38140869 C99.1839151 11.34063171 99.42401306 10.29985474 99.67138672 9.22753906 C99.88012421 8.31264709 100.08886169 7.39775513 100.30392456 6.45513916 C101 4 101 4 103 0 C110.59 0 118.18 0 126 0 C124.875 7.875 124.875 7.875 123.96861267 11.18260193 C123.66364113 12.30770424 123.66364113 12.30770424 123.35250854 13.45553589 C123.1316861 14.25323395 122.91086365 15.05093201 122.68334961 15.87280273 C122.44911789 16.73213913 122.21488617 17.59147552 121.97355652 18.47685242 C121.20382837 21.29687992 120.42813147 24.11522781 119.65234375 26.93359375 C119.11531717 28.89646968 118.57866588 30.85944833 118.04237366 32.82252502 C116.63394188 37.97408416 115.22043223 43.12423653 113.80584717 48.27410889 C112.36162562 53.53541193 110.92222935 58.79803452 109.48242188 64.06054688 C106.6596585 74.37499376 103.83108208 84.68783331 101 95 C93.08 95 85.16 95 77 95 C76.15695312 91.555625 75.31390625 88.11125 74.4453125 84.5625 C73.62455859 81.2097867 72.80373757 77.85708984 71.98291016 74.50439453 C71.41448065 72.1824716 70.8461204 69.8605317 70.27783203 67.53857422 C69.45884315 64.19233767 68.63960146 60.84616309 67.8203125 57.5 C67.56814972 56.4694751 67.31598694 55.4389502 67.05618286 54.37719727 C65.7183911 48.91447741 64.36940312 43.4548838 63 38 C62.83935562 38.66985428 62.67871124 39.33970856 62.51319885 40.02986145 C60.8439579 46.98911928 59.1728829 53.94793485 57.50073242 60.90649414 C56.87641337 63.50497831 56.25274947 66.10361842 55.62963867 68.70239258 C54.7347942 72.43340282 53.83826812 76.16400551 52.94140625 79.89453125 C52.6622084 81.06023148 52.38301056 82.2259317 52.09535217 83.42695618 C51.83515793 84.50785019 51.57496368 85.5887442 51.30688477 86.70239258 C51.07816177 87.65503494 50.84943878 88.60767731 50.61378479 89.58918762 C50.14941844 91.41311705 49.59517684 93.21446949 49 95 C41.41 95 33.82 95 26 95 C22.62486916 85.99965108 22.62486916 85.99965108 21.7660675 82.8691864 C21.56841797 82.15573563 21.37076843 81.44228485 21.16712952 80.70721436 C20.86070778 79.57923431 20.86070778 79.57923431 20.5480957 78.4284668 C20.3233255 77.61281754 20.0985553 76.79716827 19.86697388 75.95680237 C19.13280855 73.28862595 18.40409821 70.61899696 17.67578125 67.94921875 C17.16462165 66.08447891 16.6532402 64.21979986 16.14164734 62.35517883 C15.0743203 58.46165447 14.00970802 54.56740082 12.94702148 50.67260742 C11.58360144 45.67649803 10.2133318 40.68229733 8.84104633 35.68861675 C7.78570211 31.84530874 6.73398427 28.00101571 5.68337059 24.15641212 C5.17932854 22.3136698 4.67414625 20.47123898 4.16781044 18.6291256 C3.46275137 16.06192957 2.76258501 13.49344878 2.0637207 10.92456055 C1.85336685 10.1624527 1.643013 9.40034485 1.42628479 8.61514282 C0.62486745 5.65265879 0 3.0843908 0 0 Z " fill="#060606" transform="translate(330,488)"/>
<path d="M0 0 C0.68301178 -0.00335861 1.36602356 -0.00671722 2.06973267 -0.01017761 C4.34053338 -0.01971926 6.61126053 -0.02163275 8.88208008 -0.02270508 C10.45811494 -0.02591697 12.03414949 -0.02928099 13.61018372 -0.03279114 C16.92160736 -0.03879152 20.23300489 -0.04063026 23.54443359 -0.04003906 C27.78015321 -0.03993774 32.01570407 -0.05355485 36.25138378 -0.07081127 C39.51055158 -0.08195547 42.76967901 -0.08395748 46.02886391 -0.08342934 C47.5897104 -0.08460715 49.150558 -0.08901781 50.71138573 -0.0967617 C52.90145854 -0.10660433 55.09117087 -0.10366621 57.28125 -0.09765625 C58.5262175 -0.09908127 59.771185 -0.10050629 61.05387878 -0.10197449 C66.96364781 0.32647735 71.20306371 2.00257849 75.46411133 6.14526367 C78.01321133 10.79244772 77.77027164 15.4514081 77.76489258 20.61010742 C77.7691777 21.52103653 77.77346283 22.43196564 77.77787781 23.37049866 C77.78360831 25.29272635 77.78413082 27.21497571 77.77978516 29.13720703 C77.77662583 32.06930731 77.80009805 35.00039743 77.82543945 37.93237305 C77.82771272 39.80411657 77.82841581 41.6758628 77.82739258 43.54760742 C77.83660233 44.41965317 77.84581207 45.29169891 77.8553009 46.19017029 C77.81704893 51.25220246 77.30445402 54.77656803 74.46411133 59.14526367 C70.61045588 62.32871817 68.38825201 63.3622597 63.46411133 63.14526367 C67.22725165 68.84113467 71.02155892 74.51252928 74.88989258 80.13745117 C75.77414917 81.42365356 75.77414917 81.42365356 76.67626953 82.73583984 C77.86419192 84.46135267 79.05412142 86.18548548 80.24609375 87.90820312 C80.79241455 88.70186279 81.33873535 89.49552246 81.90161133 90.31323242 C82.39532227 91.02761475 82.8890332 91.74199707 83.39770508 92.47802734 C84.46411133 94.14526367 84.46411133 94.14526367 84.46411133 95.14526367 C58.06375788 97.21629613 58.06375788 97.21629613 52.98754883 93.03588867 C51.13033949 90.4622278 49.69315321 87.96647079 48.40844727 85.06762695 C46.55820074 81.301122 43.95871063 77.98964371 41.52661133 74.58276367 C40.59684197 73.23002741 39.67079765 71.87471996 38.74926758 70.51635742 C38.35618408 69.93813232 37.96310059 69.35990723 37.55810547 68.76416016 C36.52051924 67.2287363 35.49204602 65.68716571 34.46411133 64.14526367 C32.53969718 63.63994501 32.53969718 63.63994501 30.33129883 63.63354492 C29.60539551 63.60043213 28.87949219 63.56731934 28.1315918 63.53320312 C26.74931396 63.4958606 26.74931396 63.4958606 25.33911133 63.45776367 C22.41036133 63.35463867 19.48161133 63.25151367 16.46411133 63.14526367 C16.46411133 73.70526367 16.46411133 84.26526367 16.46411133 95.14526367 C8.54411133 95.14526367 0.62411133 95.14526367 -7.53588867 95.14526367 C-7.55843813 82.90645709 -7.57680285 70.6676642 -7.58770084 58.42884159 C-7.59293006 52.74649855 -7.6000284 47.0641704 -7.61132812 41.38183594 C-7.62215564 35.90297231 -7.62816521 30.42412305 -7.63076591 24.94524956 C-7.63262041 22.84996756 -7.63624149 20.75468639 -7.64161873 18.65941048 C-7.64882735 15.73548784 -7.64987969 12.81162534 -7.64941406 9.88769531 C-7.65300934 9.01232117 -7.65660461 8.13694702 -7.66030884 7.23504639 C-7.64755834 -0.11386153 -7.21778984 0.02217002 0 0 Z M16.46411133 20.14526367 C16.46411133 28.06526367 16.46411133 35.98526367 16.46411133 44.14526367 C21.55466738 44.19112454 26.64450953 44.23096425 31.73510742 44.25512695 C33.46755397 44.26519743 35.19998348 44.27885456 36.93237305 44.29614258 C39.41955771 44.32034529 41.90651808 44.33173606 44.39379883 44.34057617 C45.55949905 44.35606003 45.55949905 44.35606003 46.74874878 44.37185669 C48.65536626 44.37225638 50.56142169 44.26758507 52.46411133 44.14526367 C54.91398064 41.69539436 54.72042444 41.00818567 54.72973633 37.64526367 C54.73231445 36.75838867 54.73489258 35.87151367 54.73754883 34.95776367 C54.72594727 33.56557617 54.72594727 33.56557617 54.71411133 32.14526367 C54.7218457 31.21713867 54.72958008 30.28901367 54.73754883 29.33276367 C54.73368164 28.00245117 54.73368164 28.00245117 54.72973633 26.64526367 C54.72748047 25.83057617 54.72522461 25.01588867 54.72290039 24.17651367 C54.64585426 21.91895916 54.64585426 21.91895916 52.46411133 20.14526367 C49.73925405 19.9700862 47.11751771 19.91377234 44.39379883 19.94995117 C43.19945724 19.95419601 43.19945724 19.95419601 41.98098755 19.95852661 C39.4335437 19.96973728 36.88644922 19.99484305 34.33911133 20.02026367 C32.61385598 20.03029235 30.88859514 20.03941839 29.16333008 20.04760742 C24.93001371 20.06797949 20.69745438 20.10712545 16.46411133 20.14526367 Z " fill="#070707" transform="translate(568.535888671875,487.854736328125)"/>
<path d="M0 0 C1.88314659 -0.00956978 1.88314659 -0.00956978 3.80433655 -0.01933289 C5.1878353 -0.02086244 6.57133457 -0.02197593 7.95483398 -0.02270508 C9.36913589 -0.02591791 10.78343745 -0.02928201 12.19773865 -0.03279114 C15.17122161 -0.03879264 18.14467547 -0.04063025 21.11816406 -0.04003906 C24.91201988 -0.03993797 28.70568629 -0.05353022 32.49949741 -0.07081127 C35.42590677 -0.08198771 38.35227137 -0.08395646 41.27869987 -0.08342934 C42.67601098 -0.08460327 44.07332348 -0.08899184 45.47061348 -0.0967617 C65.69129447 -0.19857526 65.69129447 -0.19857526 73.13842773 7.14526367 C78.55023061 14.82280139 78.8620658 22.26111437 78.76733398 31.40307617 C78.76816492 32.75967601 78.77063275 34.11627571 78.77464294 35.47286987 C78.7774826 38.29871373 78.76297902 41.12375691 78.73535156 43.94946289 C78.70120432 47.5517419 78.70732532 51.15259772 78.72601414 54.75494576 C78.73663395 57.55019784 78.72760278 60.34512461 78.71262932 63.14034653 C78.70500964 65.1077214 78.71226138 67.07513604 78.71986389 69.04251099 C78.61371839 77.14203698 77.837402 82.85875658 72.39233398 89.16870117 C71.83416992 89.6147168 71.27600586 90.06073242 70.70092773 90.52026367 C69.86754883 91.21249023 69.86754883 91.21249023 69.01733398 91.91870117 C64.48136 94.87981517 60.60722263 95.39195031 55.23681641 95.37231445 C54.22622665 95.37275253 54.22622665 95.37275253 53.19522095 95.37319946 C50.98214559 95.37181305 48.76941257 95.35628478 46.55639648 95.34057617 C45.01654748 95.33684358 43.4766961 95.33399777 41.93684387 95.33200073 C37.89427066 95.32438361 33.85184234 95.30475175 29.80932617 95.28259277 C25.68011434 95.26209285 21.55087897 95.25299016 17.42163086 95.24291992 C9.3271635 95.22150394 1.23281367 95.18739133 -6.86157227 95.14526367 C-6.88469393 82.90646038 -6.90248645 70.66766224 -6.91338444 58.42884159 C-6.91861365 52.74649855 -6.925712 47.0641704 -6.93701172 41.38183594 C-6.94783923 35.90297231 -6.95384881 30.42412305 -6.95644951 24.94524956 C-6.95830401 22.84996756 -6.96192508 20.75468639 -6.96730232 18.65941048 C-6.97451095 15.73548784 -6.97556328 12.81162534 -6.97509766 9.88769531 C-6.97869293 9.01232117 -6.98228821 8.13694702 -6.98599243 7.23504639 C-6.97394009 0.28852871 -6.86105229 0.02354842 0 0 Z M17.13842773 20.14526367 C17.13842773 38.62526367 17.13842773 57.10526367 17.13842773 76.14526367 C24.65624023 76.20713867 24.65624023 76.20713867 32.32592773 76.27026367 C34.68527466 76.29757568 34.68527466 76.29757568 37.09228516 76.32543945 C38.33856689 76.33043457 39.58484863 76.33542969 40.86889648 76.34057617 C42.14144287 76.3510498 43.41398926 76.36152344 44.72509766 76.37231445 C48.06993095 76.14982 50.23527602 75.80075565 53.13842773 74.14526367 C54.91854681 71.27813593 55.3927278 69.07936928 55.41308594 65.73144531 C55.42261795 64.86697281 55.43214996 64.00250031 55.44197083 63.11183167 C55.44060371 61.72265785 55.44060371 61.72265785 55.43920898 60.30541992 C55.44563667 58.86675819 55.44563667 58.86675819 55.45219421 57.39903259 C55.45793208 55.37247506 55.45844178 53.34589694 55.45410156 51.31933594 C55.45094281 48.22254215 55.47440354 45.12670493 55.49975586 42.0300293 C55.50202906 40.05932738 55.50273225 38.08862289 55.50170898 36.11791992 C55.51091873 35.19382828 55.52012848 34.26973663 55.52961731 33.31764221 C55.49476891 28.46351642 55.36686278 25.05254076 52.13842773 21.14526367 C49.12617279 19.6391362 46.0258671 20.02355725 42.72436523 20.04760742 C42.07765869 20.0486145 41.43095215 20.04962158 40.76464844 20.05065918 C38.34755685 20.05589343 35.93049052 20.0698547 33.51342773 20.08276367 C28.10967773 20.10338867 22.70592773 20.12401367 17.13842773 20.14526367 Z " fill="#070707" transform="translate(666.861572265625,487.854736328125)"/>
<path d="M0 0 C1.13823212 -0.00637985 2.27646423 -0.0127597 3.44918823 -0.01933289 C5.28055832 -0.02100212 5.28055832 -0.02100212 7.14892578 -0.02270508 C8.41261993 -0.02603348 9.67631409 -0.02936188 10.978302 -0.03279114 C13.64963304 -0.03785052 16.3208623 -0.04063277 18.9921875 -0.04003906 C22.40040993 -0.03993754 25.80842359 -0.05358725 29.2165966 -0.07081127 C32.48569833 -0.08466178 35.75479871 -0.08402147 39.02392578 -0.08520508 C40.24079071 -0.09239059 41.45765564 -0.09957611 42.71139526 -0.10697937 C57.18010069 -0.06808603 57.18010069 -0.06808603 62.61132812 4.68798828 C67.24136816 10.6812698 66.03239716 19.26537906 65.94580078 26.46166992 C65.94476233 28.16365049 65.94580256 29.86563348 65.94882202 31.56761169 C65.94864307 35.12600755 65.92788699 38.68349249 65.89160156 42.24169922 C65.84619164 46.79368732 65.84514957 51.34434819 65.85863686 55.89650059 C65.86533166 59.40797136 65.85202873 62.91914165 65.83237839 66.43055534 C65.82470279 68.10860559 65.82236616 69.78668933 65.82555008 71.4647541 C65.82629514 73.8127584 65.80095617 76.15908484 65.76855469 78.50683594 C65.77350952 79.19427383 65.77846436 79.88171173 65.78356934 80.58998108 C65.67504841 85.53767157 64.38494901 88.37934817 61.21923828 92.14526367 C57.43096186 95.12896762 54.5588677 95.5263906 49.79589844 95.54931641 C47.87833237 95.56834267 47.87833237 95.56834267 45.92202759 95.5877533 C44.534117 95.58570143 43.14620753 95.58271305 41.75830078 95.57885742 C40.3248978 95.5834224 38.891497 95.58872892 37.45809937 95.59474182 C34.45716449 95.60366356 31.45649585 95.60126156 28.45556641 95.59130859 C24.62334271 95.57983274 20.79204239 95.60001263 16.95993996 95.62922573 C14.00007353 95.64763855 11.04042618 95.64728505 8.08051682 95.64158821 C6.66841717 95.64143555 5.25630216 95.64743442 3.84425735 95.65987968 C-10.32461141 95.76715348 -10.32461141 95.76715348 -15.78076172 91.14526367 C-18.61165544 86.5414796 -19.16253477 83.03912736 -19.18481445 77.67456055 C-19.1916777 76.95180435 -19.19854095 76.22904816 -19.20561218 75.48439026 C-19.22381673 73.1107279 -19.22005249 70.73773041 -19.21435547 68.36401367 C-19.21891989 66.70544217 -19.22422623 65.04687255 -19.23023987 63.38830566 C-19.23915814 59.91837868 -19.23676204 56.44868202 -19.22680664 52.97875977 C-19.2153103 48.54005215 -19.23554465 44.10213931 -19.26472378 39.66353607 C-19.28309945 36.24048851 -19.28279077 32.81763103 -19.27708626 29.39454651 C-19.27693325 27.7583352 -19.28296035 26.12211085 -19.29537773 24.48594666 C-19.310315 22.19545064 -19.29959304 19.90641811 -19.2824707 17.6159668 C-19.28230453 16.31502075 -19.28213837 15.01407471 -19.28196716 13.67370605 C-18.58377262 8.75847772 -16.4294823 5.68761519 -12.84326172 2.33276367 C-8.82688778 0.02030595 -4.54490332 0.01735641 0 0 Z M4.21923828 22.14526367 C3.90615417 24.4350817 3.90615417 24.4350817 3.94458008 27.11401367 C3.93504807 28.14848633 3.92551605 29.18295898 3.91569519 30.2487793 C3.9166066 31.36961914 3.91751801 32.49045898 3.91845703 33.64526367 C3.91417191 34.79188477 3.90988678 35.93850586 3.9054718 37.11987305 C3.8997209 39.54760069 3.8992338 41.97534558 3.90356445 44.40307617 C3.90672528 48.12993561 3.88327065 51.85600243 3.85791016 55.58276367 C3.85563745 57.93692933 3.85493353 60.29109714 3.85595703 62.64526367 C3.84674728 63.76610352 3.83753754 64.88694336 3.82804871 66.04174805 C3.8342775 67.0762207 3.84050629 68.11069336 3.84692383 69.17651367 C3.8462944 70.08981445 3.84566498 71.00311523 3.84501648 71.9440918 C3.96850967 72.67047852 4.09200287 73.39686523 4.21923828 74.14526367 C7.95567372 76.63622063 9.94468563 76.40318029 14.40673828 76.41088867 C15.10565186 76.41280212 15.80456543 76.41471558 16.5246582 76.41668701 C18.00065471 76.4180465 19.47666327 76.41436649 20.95263672 76.40600586 C23.21104812 76.39530249 25.4686641 76.40590857 27.72705078 76.41870117 C29.16194837 76.41737953 30.59684546 76.41481705 32.03173828 76.41088867 C33.99046875 76.40750488 33.99046875 76.40750488 35.98876953 76.40405273 C39.36882396 76.3968917 39.36882396 76.3968917 42.21923828 74.14526367 C42.66439294 71.81311426 42.66439294 71.81311426 42.57568359 69.06884766 C42.57868469 68.01112656 42.58168579 66.95340546 42.58477783 65.8636322 C42.57243103 64.71778152 42.56008423 63.57193085 42.54736328 62.39135742 C42.54549011 61.22016861 42.54361694 60.0489798 42.54168701 58.84230042 C42.53495546 56.36326252 42.52101932 53.88423545 42.50048828 51.40527344 C42.46933992 47.59519671 42.45952017 43.78553319 42.45361328 39.9753418 C42.44444363 37.57234192 42.43406798 35.16934628 42.42236328 32.76635742 C42.4181134 31.61848251 42.41386353 30.4706076 42.40948486 29.28794861 C42.39987732 28.23337967 42.39026978 27.17881073 42.38037109 26.09228516 C42.37012909 24.69235573 42.37012909 24.69235573 42.35968018 23.2641449 C42.45391033 21.16033792 42.45391033 21.16033792 41.21923828 20.14526367 C38.64904343 20.03194274 36.10672351 19.98108882 33.53564453 19.97729492 C32.76494125 19.97396652 31.99423798 19.97063812 31.20018005 19.96720886 C29.56680907 19.96213657 27.93342768 19.95980063 26.30004883 19.95996094 C23.79572529 19.95777588 21.29184308 19.93962772 18.78759766 19.9206543 C17.20361479 19.9177202 15.61962983 19.91573551 14.03564453 19.91479492 C13.28352188 19.90760941 12.53139923 19.90042389 11.75648499 19.89302063 C7.52819378 19.76381902 7.52819378 19.76381902 4.21923828 22.14526367 Z " fill="#040404" transform="translate(482.78076171875,487.854736328125)"/>
<path d="M0 0 C4.95 0 9.9 0 15 0 C15.66 16.83 16.32 33.66 17 51 C25.19602465 34.07917491 33.23884426 17.12431358 41 0 C45.62 0 50.24 0 55 0 C55.08564209 1.50941162 55.17128418 3.01882324 55.25952148 4.57397461 C55.57724488 10.15205112 55.90108155 15.72975854 56.22680664 21.30737305 C56.36715934 23.72557035 56.50583391 26.14386564 56.64282227 28.56225586 C56.83954152 32.03005419 57.04221155 35.49746012 57.24609375 38.96484375 C57.3065538 40.05337143 57.36701385 41.14189911 57.42930603 42.26341248 C57.48929276 43.26437454 57.54927948 44.26533661 57.61108398 45.29663086 C57.66215805 46.18265488 57.71323212 47.06867889 57.76585388 47.98155212 C57.78768852 49.99466067 57.78768852 49.99466067 59 51 C59.41773682 50.02353516 59.83547363 49.04707031 60.26586914 48.04101562 C61.85131694 44.33549528 63.43762837 40.63034513 65.02416992 36.92529297 C65.70408437 35.33717397 66.38378025 33.74896137 67.06323242 32.16064453 C71.65891695 21.41810439 76.30389379 10.69906123 81 0 C85.95 0 90.9 0 96 0 C93.32572485 8.89749439 89.43519115 17.23592997 85.625 25.6875 C84.18635442 28.89473983 82.75104597 32.10346658 81.31640625 35.3125 C80.95540329 36.11922653 80.59440033 36.92595306 80.22245789 37.75712585 C76.02398323 47.1558295 71.95188628 56.60885391 67.89892578 66.07104492 C67.39731934 67.23740479 66.89571289 68.40376465 66.37890625 69.60546875 C65.9413501 70.62793701 65.50379395 71.65040527 65.05297852 72.70385742 C64 75 64 75 63 76 C60.13732433 76.07325168 57.299281 76.09238205 54.4375 76.0625 C53.63119141 76.05798828 52.82488281 76.05347656 51.99414062 76.04882812 C49.99606244 76.03700518 47.99802217 76.01906914 46 76 C45.12357992 71.32941133 44.73465146 66.70684288 44.5 61.96875 C44.45939453 61.21460815 44.41878906 60.46046631 44.37695312 59.68347168 C44.20465033 56.48145616 44.0401847 53.27904947 43.875 50.07666016 C43.75272067 47.72803725 43.62644564 45.3796517 43.5 43.03125 C43.46455078 42.31545776 43.42910156 41.59966553 43.39257812 40.86218262 C43.17582333 36.84485121 42.74199761 32.95422894 42 29 C41.38125 30.28293945 41.38125 30.28293945 40.75 31.59179688 C26.25240312 61.64320198 26.25240312 61.64320198 19 76 C13.39 76 7.78 76 2 76 C0.85320672 61.04350271 0.68168839 46.08114025 0.46777344 31.08764648 C0.41682144 27.57401333 0.361527 24.06044851 0.30664062 20.546875 C0.200271 13.69797522 0.09897966 6.84901054 0 0 Z " fill="#070707" transform="translate(969,499)"/>
<path d="M0 0 C0.5671875 0.39316406 1.134375 0.78632813 1.71875 1.19140625 C2.2859375 1.55363281 2.853125 1.91585938 3.4375 2.2890625 C8.59256884 6.01637943 10.77099294 11.34813508 12.71875 17.19140625 C14.14854574 34.1409848 11.44830292 50.14118443 0.34375 63.62890625 C-7.3263268 71.71857149 -16.52518898 75.17507326 -27.54223633 75.59545898 C-36.61476001 75.73098791 -43.25309089 74.20830172 -51.09375 69.50390625 C-59.26240435 60.86847165 -59.71568728 51.62365542 -59.56640625 40.37109375 C-59.32899787 33.8119415 -57.82251359 28.2622026 -55.28125 22.19140625 C-54.9925 21.44890625 -54.70375 20.70640625 -54.40625 19.94140625 C-50.26836905 10.48339264 -42.5666264 3.4629595 -33.28125 -0.80859375 C-23.58258477 -4.22957749 -9.21024583 -5.24472332 0 0 Z M-36.65625 18.75390625 C-42.59512747 27.6033384 -45.45540132 39.60796014 -44.28125 50.19140625 C-42.7736981 54.83122918 -40.71691792 58.83495767 -36.28125 61.19140625 C-30.35819335 63.51832136 -23.79715287 62.56627934 -18.09375 60.16015625 C-11.20107889 56.47614238 -7.01264517 48.72149718 -4.53125 41.56640625 C-2.01255201 33.24189594 -0.89886036 25.14080827 -4.29296875 16.953125 C-6.40137266 13.19466586 -9.30626337 11.51640179 -13.28125 10.19140625 C-22.47401452 9.0106842 -30.61753284 11.48620393 -36.65625 18.75390625 Z " fill="#070707" transform="translate(941.28125,500.80859375)"/>
<path d="M0 0 C16.17 0 32.34 0 49 0 C48.01 4.29 47.02 8.58 46 13 C29.665 13.495 29.665 13.495 13 14 C11.68 19.94 10.36 25.88 9 32 C18.57 32 28.14 32 38 32 C37 43 37 43 36 45 C26.1 45 16.2 45 6 45 C4.4402351 52.95642801 4.4402351 52.95642801 2.88916016 60.91455078 C2.69112793 61.91470215 2.4930957 62.91485352 2.2890625 63.9453125 C2.09006348 64.96125488 1.89106445 65.97719727 1.68603516 67.02392578 C0.98450214 70.06723093 -0.01238394 73.03715182 -1 76 C-5.95 76 -10.9 76 -16 76 C-14.57063346 67.05432215 -12.86056278 58.20037027 -10.99609375 49.3359375 C-10.70975016 47.96785244 -10.42354368 46.59973868 -10.13746643 45.2315979 C-9.54321397 42.39250033 -8.94718011 39.55378436 -8.34985352 36.71533203 C-7.58408321 33.07561283 -6.82312298 29.43490665 -6.06347561 25.79390526 C-5.47610873 22.98144085 -4.88613374 20.16952852 -4.29536629 17.35777664 C-4.01344535 16.01430343 -3.73236639 14.67065324 -3.45214653 13.32682419 C-3.06248795 11.45999827 -2.6689141 9.59399087 -2.27514648 7.72802734 C-2.0524559 6.66723969 -1.82976532 5.60645203 -1.60032654 4.51351929 C-1 2 -1 2 0 0 Z " fill="#090909" transform="translate(771,499)"/>
<path d="M0 0 C5.28 0 10.56 0 16 0 C11.86322251 21.04187782 7.44272794 42.02106383 3 63 C13.89 63 24.78 63 36 63 C35 74 35 74 34 76 C17.5 76 1 76 -16 76 C-8.08 38.38 -8.08 38.38 0 0 Z " fill="#070707" transform="translate(832,499)"/>
</svg>
