<?xml version="1.0" encoding="UTF-8"?>
<svg version="1.1" xmlns="http://www.w3.org/2000/svg" width="1080" height="1080">
<path d="M0 0 C356.4 0 712.8 0 1080 0 C1080 356.4 1080 712.8 1080 1080 C723.6 1080 367.2 1080 0 1080 C0 723.6 0 367.2 0 0 Z " fill="#FEFEFE" transform="translate(0,0)"/>
<path d="M0 0 C1.28961136 -0.00761353 2.57922272 -0.01522705 3.90791321 -0.02307129 C6.6303479 -0.03645967 9.35249295 -0.03811209 12.07495117 -0.03222656 C15.52669307 -0.02635505 18.97701639 -0.05683921 22.42848492 -0.09734344 C25.76486162 -0.12976272 29.10096722 -0.12510384 32.4375 -0.125 C33.65773361 -0.14139526 34.87796722 -0.15779053 36.13517761 -0.17468262 C47.30791758 -0.08615797 57.61123954 2.93780608 66.3046875 10.1796875 C69.71798084 13.65827863 72.58688915 17.5194868 75.52905273 21.3972168 C81.10839605 28.66732964 86.28395906 32.9903067 95.55078125 34.46875 C100.06295487 34.71857876 104.56774981 34.74740919 109.08524895 34.74314499 C111.36947169 34.74216985 113.65323645 34.75523661 115.93739319 34.77212524 C122.42624436 34.81810419 128.91504391 34.84299304 135.40405273 34.84960938 C139.38813615 34.85464854 143.37173503 34.87901252 147.35565376 34.91493607 C148.86374554 34.92467208 150.37190447 34.92710018 151.88001823 34.92176437 C163.17781431 34.88365379 171.51822363 36.1238118 180.07421875 43.8984375 C181.55078125 45.46875 181.55078125 45.46875 183.48828125 48.46875 C185.42948408 51.29231775 186.75710159 52.48525237 189.48828125 54.40625 C195.06559173 58.37372226 198.27824783 63.03727565 200.55078125 69.46875 C200.81084347 71.89890575 200.81084347 71.89890575 200.82493591 74.48246765 C200.83491104 75.46775955 200.84488617 76.45305145 200.85516357 77.46820068 C200.85582825 78.537901 200.85649292 79.60760132 200.85717773 80.7097168 C200.86550125 81.84530533 200.87382477 82.98089386 200.88240051 84.15089417 C200.90650309 87.90662056 200.91527385 91.6621732 200.921875 95.41796875 C200.93084233 98.03245597 200.9399642 100.64694267 200.94923401 103.26142883 C200.96658931 108.7448491 200.9734576 114.22822522 200.97631836 119.71166992 C200.97994785 126.03006549 201.00980411 132.34797359 201.05172294 138.66622037 C201.09074208 144.76325011 201.10191378 150.86004473 201.10304451 156.95719337 C201.10724183 159.54187471 201.1196563 162.12655665 201.14056206 164.71115685 C201.16753465 168.33480106 201.16263148 171.95711589 201.15014648 175.58081055 C201.17239792 177.17017929 201.17239792 177.17017929 201.19509888 178.79165649 C201.10775531 187.73200699 198.36132493 194.71451189 192.30078125 201.34375 C183.05468531 209.66482711 172.64601877 209.04829555 160.87915039 209.00219727 C158.9827355 209.00926187 157.08632625 209.01800916 155.18992615 209.02830505 C150.057627 209.05074787 144.92563699 209.04787125 139.79330754 209.03898358 C135.5016155 209.03386234 131.20998096 209.04117548 126.91829485 209.04845566 C116.79061192 209.06543843 106.66307972 209.0619051 96.53540039 209.04516602 C86.10211704 209.02824436 75.66925209 209.04408367 65.23601443 209.0763889 C56.26332038 209.10311478 47.29075633 209.11035274 38.31802648 209.10187382 C32.965591 209.09695362 27.61340721 209.09911126 22.26100349 209.11966133 C17.22682418 209.13806559 12.19324506 209.13200168 7.15909767 209.10746193 C5.31691535 209.10246919 3.47468692 209.10590369 1.63254166 209.11861038 C-9.62205348 209.1900714 -18.00113721 208.73484342 -27.0703125 201.328125 C-27.66972656 200.63203125 -28.26914063 199.9359375 -28.88671875 199.21875 C-29.50417969 198.53296875 -30.12164062 197.8471875 -30.7578125 197.140625 C-36.16223452 188.6033856 -35.89610276 179.45671429 -35.88500977 169.67456055 C-35.89399941 168.08680517 -35.90421041 166.49905631 -35.9155426 164.91131592 C-35.94192327 160.61982222 -35.94907097 156.32850825 -35.95098996 152.03694129 C-35.95312928 149.3500921 -35.95954693 146.66328793 -35.96748161 143.97644997 C-35.99519498 134.58689115 -36.00749209 125.19745969 -36.00512695 115.80786133 C-36.00332543 107.08092377 -36.03497587 98.35454301 -36.08235794 89.62774628 C-36.12169177 82.113188 -36.13767419 74.59881095 -36.13576072 67.08415061 C-36.13499894 62.60568707 -36.1433751 58.12771894 -36.17529488 53.64935875 C-36.20452163 49.4342091 -36.20445336 45.22002233 -36.18274498 41.00483704 C-36.17963 39.4666381 -36.18656124 37.92837723 -36.20482635 36.39028358 C-36.3242244 25.63065742 -34.84649633 16.50176475 -27.42472172 8.20579052 C-19.40928143 0.41109371 -10.66920386 0.00174661 0 0 Z " fill="#55ACED" transform="translate(127.44921875,406.53125)"/>
<path d="M0 0 C1.28961136 -0.00761353 2.57922272 -0.01522705 3.90791321 -0.02307129 C6.6303479 -0.03645967 9.35249295 -0.03811209 12.07495117 -0.03222656 C15.52669307 -0.02635505 18.97701639 -0.05683921 22.42848492 -0.09734344 C25.76486162 -0.12976272 29.10096722 -0.12510384 32.4375 -0.125 C33.65773361 -0.14139526 34.87796722 -0.15779053 36.13517761 -0.17468262 C47.30791758 -0.08615797 57.61123954 2.93780608 66.3046875 10.1796875 C69.71798084 13.65827863 72.58688915 17.5194868 75.52905273 21.3972168 C81.10839605 28.66732964 86.28395906 32.9903067 95.55078125 34.46875 C100.06295487 34.71857876 104.56774981 34.74740919 109.08524895 34.74314499 C111.36947169 34.74216985 113.65323645 34.75523661 115.93739319 34.77212524 C122.42624436 34.81810419 128.91504391 34.84299304 135.40405273 34.84960938 C139.38813615 34.85464854 143.37173503 34.87901252 147.35565376 34.91493607 C148.86374554 34.92467208 150.37190447 34.92710018 151.88001823 34.92176437 C163.31712322 34.88318386 171.29753932 36.30346902 180.140625 43.80859375 C181.88267804 45.85948722 182.59911365 47.96791532 183.55078125 50.46875 C182.32501877 50.45542633 182.32501877 50.45542633 181.07449341 50.4418335 C173.33694971 50.36136353 165.59961167 50.30062221 157.86175728 50.26150131 C153.88454318 50.24071199 149.90767763 50.21255519 145.93066406 50.16699219 C142.08565772 50.12322206 138.24098458 50.09954796 134.39574814 50.08924103 C132.93584836 50.08190506 131.47596482 50.06758094 130.01620865 50.04582977 C117.61353714 49.86853542 108.695526 51.92799419 99.0625 59.98828125 C95.68277848 63.32595336 92.91566137 66.99234278 90.09863281 70.80566406 C85.46858652 77.04392627 81.23663325 81.41031704 73.55078125 83.46875 C70.13864136 83.70684814 70.13864136 83.70684814 66.35888672 83.69238281 C65.66527542 83.69279068 64.97166412 83.69319855 64.2570343 83.69361877 C62.75931178 83.69381541 61.26158393 83.68981082 59.76388168 83.68201447 C57.3823815 83.67172119 55.0013994 83.67721884 52.61990356 83.68743896 C45.85165279 83.71528725 39.08369351 83.72805697 32.31542969 83.69873047 C28.16493493 83.68187921 24.01536686 83.69450602 19.86496353 83.72518158 C18.29513043 83.73123407 16.72521337 83.72655589 15.15545273 83.71030426 C5.19953984 83.61158321 -3.01881507 84.54334903 -11.44921875 90.46875 C-17.10852109 96.20657679 -20.75807919 103.09511704 -20.84150696 111.24523926 C-20.83378769 111.94314575 -20.82606842 112.64105225 -20.81811523 113.36010742 C-20.82188171 114.11548294 -20.82564819 114.87085846 -20.82952881 115.64912415 C-20.83592762 117.2766973 -20.83566308 118.90430787 -20.8293438 120.53188133 C-20.82018976 123.10877184 -20.83050401 125.68494163 -20.84596252 128.26179504 C-20.88595718 135.58329247 -20.88725856 142.90472981 -20.88500977 150.22631836 C-20.88495871 154.71491714 -20.90409625 159.20312302 -20.93434334 163.69161415 C-20.94517254 166.22892675 -20.9330403 168.76549156 -20.92051697 171.30278015 C-20.92941911 172.85705305 -20.9394927 174.41131984 -20.95092773 175.96557617 C-20.94118423 176.66955536 -20.93144073 177.37353455 -20.92140198 178.09884644 C-20.97064215 181.44937901 -21.24867841 183.20260313 -23.28895569 185.91035461 C-26.19916151 188.00975232 -27.9386061 187.9916072 -31.44921875 187.46875 C-33.10774136 186.35125065 -33.10774136 186.35125065 -34.44921875 184.46875 C-34.83512211 181.55067348 -34.83512211 181.55067348 -34.85035706 177.91123962 C-34.85715373 177.24194587 -34.86395039 176.57265211 -34.87095302 175.88307673 C-34.88997688 173.63535451 -34.88748492 171.38817479 -34.88500977 169.14038086 C-34.89398456 167.53056129 -34.90419216 165.92074818 -34.9155426 164.3109436 C-34.94208665 159.93245589 -34.94907822 155.55414399 -34.95098996 151.1755836 C-34.95312142 148.43819456 -34.95952447 145.70085029 -34.96748161 142.96347237 C-34.99525762 133.40766689 -35.00748531 123.85198708 -35.00512695 114.29614258 C-35.00332767 105.40001919 -35.03491801 96.50444338 -35.08235794 87.60845846 C-35.12166027 79.9649668 -35.13767531 72.32165341 -35.13576072 64.67806154 C-35.13499749 60.1157395 -35.14345323 55.55390315 -35.17529488 50.99168205 C-35.20446481 46.69454603 -35.20449146 42.39835533 -35.18274498 38.10118484 C-35.17962216 36.52990008 -35.18660882 34.95855522 -35.20482635 33.38737297 C-35.31825364 22.92079574 -34.03873875 15.39971961 -26.65909672 7.56927395 C-19.01853654 0.15459296 -10.10182738 0.00165373 0 0 Z " fill="#226699" transform="translate(127.44921875,406.53125)"/>
<path d="M0 0 C1.28152954 -0.01268417 2.56305908 -0.02536835 3.88342285 -0.03843689 C5.26928876 -0.0363854 6.65515356 -0.03339733 8.04101562 -0.02954102 C9.47538499 -0.03410692 10.90975217 -0.03941371 12.34411621 -0.04542542 C15.34327103 -0.05433749 18.34215929 -0.05195479 21.34130859 -0.04199219 C25.17472193 -0.03049571 29.00721501 -0.0507328 32.84050751 -0.07990932 C35.80033152 -0.09829933 38.75993602 -0.09797355 41.71980286 -0.0922718 C43.13272901 -0.09211898 44.5456704 -0.09813133 45.95854187 -0.11056328 C47.93715311 -0.12552418 49.91591646 -0.11213995 51.89453125 -0.09765625 C53.01782837 -0.09749008 54.14112549 -0.09732391 55.29846191 -0.09715271 C59.29159559 0.53844751 61.36389681 1.80274398 64.44726562 4.40405273 C67.41160278 8.87490161 67.82893764 12.46427864 67.85131836 17.76708984 C67.85818161 18.47848618 67.86504486 19.18988251 67.87211609 19.9228363 C67.89031995 22.25922983 67.88655599 24.59494771 67.88085938 26.93139648 C67.88542433 28.56515215 67.89073084 30.19890589 67.89674377 31.83265686 C67.9056623 35.25131039 67.90326626 38.66973017 67.89331055 42.08837891 C67.88182332 46.45749097 67.90203442 50.82579449 67.93122768 55.19480038 C67.94962242 58.5672768 67.94929074 61.93956063 67.94359016 65.31207466 C67.94343734 66.92233985 67.94944911 68.53261842 67.96188164 70.14283562 C67.97685245 72.39960519 67.9660721 74.65489604 67.94897461 76.91162109 C67.94880844 78.19258163 67.94864227 79.47354218 67.94847107 80.7933197 C67.30515349 85.42784245 66.20823032 87.61159782 63.44726562 91.40405273 C59.27813848 94.20512915 55.95245447 94.78383489 50.98632812 94.80810547 C49.09406494 94.82713173 49.09406494 94.82713173 47.16357422 94.84654236 C45.79980301 94.84449086 44.43603293 94.84150279 43.07226562 94.83764648 C41.66031647 94.84221257 40.24836953 94.84751941 38.83642578 94.85353088 C35.88434796 94.86244223 32.93254097 94.86006111 29.98046875 94.85009766 C26.207584 94.83860116 22.43563429 94.85883857 18.66287231 94.88801479 C15.74937052 94.90640649 12.83609169 94.90607869 9.92254639 94.90037727 C8.53194872 94.90022447 7.14133555 94.90623508 5.75079346 94.91866875 C-6.43823894 95.0123273 -6.43823894 95.0123273 -10.20117188 92.74804688 C-15.20812052 87.75721279 -17.05294154 84.03455513 -17.0703125 76.93334961 C-17.07732178 76.21059341 -17.08433105 75.48783722 -17.09155273 74.74317932 C-17.10906582 72.36932217 -17.09753492 69.99667065 -17.08398438 67.62280273 C-17.08668124 65.96423109 -17.09056528 64.30566098 -17.09558105 62.64709473 C-17.10146701 59.17709243 -17.09294262 55.707503 -17.07421875 52.23754883 C-17.05142936 47.7988066 -17.06455735 43.3610319 -17.08850861 38.92232513 C-17.10299125 35.49925501 -17.09834938 32.07641271 -17.08799744 28.65333557 C-17.08533695 27.01713444 -17.08857601 25.38091235 -17.09791565 23.74473572 C-17.10812249 21.4541884 -17.09252508 19.16518848 -17.0703125 16.87475586 C-17.06713013 15.57380981 -17.06394775 14.27286377 -17.06066895 12.93249512 C-16.45164242 8.70180258 -15.33426025 6.63430999 -12.55273438 3.40405273 C-8.31583433 0.64491929 -5.0072096 0.02408435 0 0 Z " fill="#020202" transform="translate(480.552734375,488.595947265625)"/>
<path d="M0 0 C11.075625 -0.061875 22.15125 -0.12375 33.5625 -0.1875 C37.0488501 -0.21481201 40.5352002 -0.24212402 44.12719727 -0.27026367 C48.4119873 -0.28381348 48.4119873 -0.28381348 50.42320251 -0.28633118 C51.81625754 -0.29091273 53.20930129 -0.30141145 54.60227966 -0.31672668 C56.72277221 -0.33885829 58.84254312 -0.34171241 60.96313477 -0.34057617 C62.15560318 -0.34723801 63.34807159 -0.35389984 64.57667542 -0.36076355 C71.12190864 0.32899914 75.72887696 2.92082666 80 8 C85.030282 14.63627282 84.58108914 21.07813131 84.53125 29.18359375 C84.53394939 30.56690238 84.53783551 31.95020916 84.54284668 33.33351135 C84.54872287 36.22423474 84.54024192 39.1144616 84.52148438 42.00512695 C84.49871632 45.69151915 84.51181463 49.37674484 84.53577423 53.06309414 C84.55030223 55.91751219 84.54559418 58.77165857 84.53526306 61.62608528 C84.53133501 63.64000845 84.543384 65.65394261 84.55578613 67.66783142 C84.47224242 75.87143054 83.76880359 81.63257212 78.25390625 88.0234375 C77.69574219 88.46945312 77.13757813 88.91546875 76.5625 89.375 C75.72912109 90.06722656 75.72912109 90.06722656 74.87890625 90.7734375 C70.37399285 93.71427494 66.52393985 94.24684208 61.19018555 94.22705078 C60.51555425 94.22729185 59.84092295 94.22753292 59.14584827 94.2277813 C56.97600125 94.22629617 54.80650379 94.21110072 52.63671875 94.1953125 C51.29154628 94.19236957 49.94637151 94.19033067 48.60119629 94.18920898 C43.62992912 94.1787506 38.65871108 94.15082804 33.6875 94.125 C22.570625 94.08375 11.45375 94.0425 0 94 C0 62.98 0 31.96 0 0 Z " fill="#010101" transform="translate(661,489)"/>
<path d="M0 0 C7.59 0 15.18 0 23 0 C26.93354222 14.25909054 30.1946635 28.61804059 33.3203125 43.07128906 C33.49004578 43.84989288 33.65977905 44.6284967 33.83465576 45.43069458 C34.15793139 46.91426383 34.47807734 48.39851932 34.79473877 49.8835144 C35.30724928 53.22415744 35.30724928 53.22415744 37 56 C37.18062988 55.19183838 37.36125977 54.38367676 37.54736328 53.55102539 C41.55126601 35.66245806 45.67799109 17.8151099 50 0 C57.92 0 65.84 0 74 0 C77.96190359 15.53113094 81.77776191 31.05507004 85.13330078 46.72973633 C85.3651709 47.80247803 85.59704102 48.87521973 85.8359375 49.98046875 C86.03751465 50.92817139 86.2390918 51.87587402 86.44677734 52.85229492 C86.79742308 54.96687974 86.79742308 54.96687974 88 56 C92.36244414 37.33994678 96.6986277 18.67425046 101 0 C108.92 0 116.84 0 125 0 C122.55282537 10.55781056 120.09704341 21.03401152 116.9465332 31.40209961 C115.13959774 37.39558063 113.55695356 43.43724962 112 49.5 C110.06342863 57.03550642 108.00910047 64.51338501 105.76489258 71.96264648 C103.58853344 79.24833138 101.79706781 86.61205454 100 94 C92.08 94 84.16 94 76 94 C74.79087314 89.04206317 73.58218492 84.08402305 72.37451172 79.12573242 C71.96557187 77.44728855 71.55640102 75.76890094 71.14697266 74.09057617 C69.95495172 69.20387611 68.76790507 64.31601161 67.5871582 59.42657471 C67.19341968 57.79935408 66.79805559 56.17252599 66.40112305 54.54608154 C65.83079252 52.20752598 65.26630318 49.86763056 64.703125 47.52734375 C64.53069275 46.82565567 64.3582605 46.12396759 64.18060303 45.40101624 C63.39909546 42.12780355 63 39.3946832 63 36 C62.34 36 61.68 36 61 36 C60.90203125 37.21171875 60.8040625 38.4234375 60.703125 39.671875 C59.99536438 46.01202436 58.35084914 52.08632986 56.75 58.25 C56.11750656 60.72891606 55.48600664 63.20808581 54.85546875 65.6875 C54.54270996 66.91339844 54.22995117 68.13929688 53.90771484 69.40234375 C51.84466686 77.57907185 49.93470832 85.79214652 48 94 C40.41 94 32.82 94 25 94 C21.32867164 82.42119516 18.16212004 70.7259498 15 59 C13.9817252 55.22846925 12.96116811 51.45757058 11.9375 47.6875 C11.6890332 46.77218506 11.44056641 45.85687012 11.18457031 44.91381836 C9.65090075 39.29556956 8.0441465 33.7043486 6.375 28.125 C4.69962279 22.50645499 3.13182942 16.8700863 1.6875 11.1875 C1.51589355 10.52314941 1.34428711 9.85879883 1.16748047 9.17431641 C0.36879062 5.9653988 0 3.34119002 0 0 Z " fill="#020202" transform="translate(331,489)"/>
<path d="M0 0 C12.08625 -0.061875 24.1725 -0.12375 36.625 -0.1875 C40.43369629 -0.21481201 44.24239258 -0.24212402 48.16650391 -0.27026367 C52.83666992 -0.28381348 52.83666992 -0.28381348 55.02670288 -0.28633118 C56.54813269 -0.29092174 58.06955194 -0.30143945 59.59091187 -0.31672668 C61.90275883 -0.33878499 64.21394199 -0.3417148 66.52587891 -0.34057617 C68.47779648 -0.35056892 68.47779648 -0.35056892 70.46914673 -0.36076355 C74.33947298 0.03468552 76.71233048 0.94880624 80 3 C84.14595735 8.46339668 84.59451902 12.90022757 84.53125 19.625 C84.53699036 20.98359131 84.53699036 20.98359131 84.54284668 22.36962891 C84.54555654 24.27572752 84.53826051 26.18186391 84.52148438 28.08789062 C84.50006097 30.99173541 84.52131712 33.89310641 84.546875 36.796875 C84.54423156 38.65625542 84.53910624 40.5156343 84.53125 42.375 C84.53934692 43.23561035 84.54744385 44.0962207 84.55578613 44.98291016 C84.46618119 50.79434896 83.3942241 54.24254719 80 59 C76.25592252 61.41805004 74.49512007 62 70 62 C75.10614305 70.36946756 80.70429818 78.36333939 86.37548828 86.35644531 C86.97216309 87.20045898 87.56883789 88.04447266 88.18359375 88.9140625 C88.72556396 89.6767041 89.26753418 90.4393457 89.82592773 91.22509766 C91 93 91 93 91 94 C67.31807069 96.352989 67.31807069 96.352989 60.77148438 92.78564453 C56.66464604 88.99499012 54.38234192 83.97421642 52 79 C47.20121342 68.74839841 47.20121342 68.74839841 38.66259766 62.20996094 C32.91481777 61.23767802 27.95174177 61.66231252 22 62 C22 72.56 22 83.12 22 94 C14.74 94 7.48 94 0 94 C0 62.98 0 31.96 0 0 Z " fill="#010101" transform="translate(562,489)"/>
<path d="M0 0 C6.46813504 6.66413913 8.43000646 13.31859328 8.3125 22.4375 C8.30573242 23.19369629 8.29896484 23.94989258 8.29199219 24.72900391 C8.19260651 30.09467493 7.72672099 34.99843418 6.0625 40.125 C5.69511719 41.40890625 5.69511719 41.40890625 5.3203125 42.71875 C2.10748579 52.84057574 -3.47737575 61.46809275 -12.70703125 66.98046875 C-22.83067365 72.17526249 -34.62841014 73.9914532 -45.82421875 71.4765625 C-53.483698 68.73181802 -58.51668945 64.26302975 -62.1015625 56.99609375 C-64.20387507 52.06235159 -64.55705535 47.69133141 -64.4375 42.375 C-64.42468994 41.50101563 -64.41187988 40.62703125 -64.39868164 39.7265625 C-63.99880623 26.85460862 -59.66994863 14.75324221 -51.05859375 4.99609375 C-37.17640144 -7.9886639 -16.08400832 -10.26638829 0 0 Z " fill="#040404" transform="translate(945.9375,503.875)"/>
<path d="M0 0 C4.62 0 9.24 0 14 0 C14 17.49 14 34.98 14 53 C16.91004903 51.54497549 17.30770269 49.5617521 18.65234375 46.62109375 C19.43895386 44.91324707 19.43895386 44.91324707 20.24145508 43.17089844 C20.80693529 41.92649222 21.37228069 40.68202474 21.9375 39.4375 C22.51595214 38.17584617 23.09497741 36.91445498 23.67456055 35.65332031 C24.86505525 33.06004486 26.05181902 30.46511252 27.23535156 27.86865234 C28.9184978 24.17629507 30.610551 20.48810973 32.3046875 16.80078125 C34.8757242 11.20322047 37.43985937 5.60255224 40 0 C44.62 0 49.24 0 54 0 C54.29016044 5.136843 54.57471056 10.27395819 54.85449219 15.41137695 C54.95002788 17.15201813 55.04698725 18.89258186 55.14550781 20.63305664 C55.7559195 31.43672056 56.1474527 42.17758591 56 53 C59.26748191 51.36625905 59.91871423 47.83615093 61.23046875 44.58984375 C61.54397781 43.83014786 61.85748688 43.07045197 62.18049622 42.28773499 C63.18920405 39.8402203 64.18870958 37.3890765 65.1875 34.9375 C66.4907491 31.7579854 67.79770368 28.58000317 69.10546875 25.40234375 C69.58643509 24.23111465 69.58643509 24.23111465 70.07711792 23.03622437 C73.26370616 15.30280276 76.61968646 7.65064477 80 0 C84.95 0 89.9 0 95 0 C91.16647979 10.27205801 86.86464646 20.25252672 82.375 30.25 C81.30931834 32.63295143 80.24481787 35.01642824 79.18037415 37.39993286 C78.47119247 38.98772991 77.76163062 40.57535722 77.05168152 42.16281128 C73.39295302 50.34652392 69.78611581 58.55259844 66.18701172 66.76269531 C65.77596191 67.69952148 65.36491211 68.63634766 64.94140625 69.6015625 C64.58763916 70.40932129 64.23387207 71.21708008 63.86938477 72.04931641 C63.27631468 73.38001844 62.65153665 74.6969267 62 76 C56.39 76 50.78 76 45 76 C44.91435791 74.794646 44.82871582 73.58929199 44.74047852 72.34741211 C44.42054827 67.8539043 44.09735165 63.36063626 43.77319336 58.86743164 C43.6336369 56.92673984 43.49495344 54.98598505 43.35717773 53.04516602 C43.15841266 50.24738621 42.95645684 47.44985174 42.75390625 44.65234375 C42.6934462 43.7916478 42.63298615 42.93095184 42.57069397 42.04417419 C42.22545516 37.3230125 41.73126619 32.67734413 41 28 C40.48091064 29.09876465 39.96182129 30.1975293 39.42700195 31.32958984 C37.4805351 35.44893703 35.53259255 39.567585 33.58422852 43.68603516 C32.74496544 45.46058756 31.90609006 47.23532338 31.06762695 49.01025391 C22.49343775 67.15955016 22.49343775 67.15955016 18 76 C12.39 76 6.78 76 1 76 C-0.11880203 59.94915514 -0.11470358 43.95961224 -0.0625 27.875 C-0.05689419 25.16276187 -0.05284297 22.45052214 -0.04882812 19.73828125 C-0.0379208 13.1588314 -0.0207221 6.57942596 0 0 Z " fill="#030303" transform="translate(970,499)"/>
<path d="M0 0 C8.53875 -0.12375 8.53875 -0.12375 17.25 -0.25 C19.04083008 -0.28641602 20.83166016 -0.32283203 22.67675781 -0.36035156 C24.10220135 -0.37203811 25.52765827 -0.38223003 26.953125 -0.390625 C27.68837402 -0.41108887 28.42362305 -0.43155273 29.18115234 -0.45263672 C32.37905992 -0.45481365 34.65327334 -0.19228287 37.4675293 1.3684082 C39.91425248 5.56997411 39.59030033 9.71841691 39.56640625 14.49609375 C39.57570412 16.03463768 39.57570412 16.03463768 39.58518982 17.60426331 C39.59228929 19.77205456 39.5891118 21.93990032 39.57641602 24.10766602 C39.56256307 27.4224096 39.59660562 30.73432355 39.63476562 34.04882812 C39.63571695 36.15625069 39.63385729 38.26367679 39.62890625 40.37109375 C39.64216446 41.36080673 39.65542267 42.35051971 39.66908264 43.370224 C39.60855342 47.85052973 39.44593133 50.31629544 36.95605469 54.13378906 C33.25557347 56.46996997 30.31415361 56.64135184 26.07421875 56.48828125 C25.41087524 56.48324585 24.74753174 56.47821045 24.06408691 56.47302246 C21.60477998 56.44701664 19.14609302 56.37720886 16.6875 56.3125 C8.4271875 56.1578125 8.4271875 56.1578125 0 56 C0 37.52 0 19.04 0 0 Z " fill="#FAFAFA" transform="translate(683,508)"/>
<path d="M0 0 C0.77915771 0.00202423 1.55831543 0.00404846 2.36108398 0.00613403 C3.15635498 0.00517731 3.95162598 0.00422058 4.77099609 0.00323486 C6.45564859 0.0025531 8.1403037 0.00440711 9.82495117 0.00857544 C12.41257595 0.01392378 15.00002714 0.00863034 17.58764648 0.00222778 C19.22045937 0.00288857 20.85327215 0.00416973 22.48608398 0.00613403 C23.2652417 0.0041098 24.04439941 0.00208557 24.84716797 0 C30.30863294 0.02399549 30.30863294 0.02399549 31.42358398 1.13894653 C31.51711562 2.82696638 31.54103189 4.51889861 31.53710938 6.20950317 C31.53703384 7.29054825 31.53695831 8.37159332 31.53688049 9.48539734 C31.53171921 10.66142014 31.52655792 11.83744293 31.52124023 13.04910278 C31.51982529 14.24627426 31.51841034 15.44344574 31.51695251 16.67689514 C31.51133378 20.51843719 31.49877809 24.35992196 31.48608398 28.20144653 C31.4810714 30.7984509 31.47650807 33.39545618 31.47241211 35.99246216 C31.46135826 42.37464332 31.4446019 48.75679084 31.42358398 55.13894653 C28.3783018 56.66158763 25.20213152 56.30180191 21.86108398 56.30691528 C21.1139917 56.31024368 20.36689941 56.31357208 19.59716797 56.31700134 C18.01685197 56.32206619 16.43652528 56.3244098 14.85620117 56.32424927 C12.43317156 56.32643787 10.01059563 56.34460354 7.58764648 56.36355591 C6.05379388 56.36648945 4.51993911 56.36847451 2.98608398 56.36941528 C2.25897217 56.3766008 1.53186035 56.38378632 0.78271484 56.39118958 C-4.34758799 56.36777456 -4.34758799 56.36777456 -6.57641602 54.13894653 C-6.82365417 51.89308167 -6.82365417 51.89308167 -6.81933594 49.06253052 C-6.82241257 48.00480942 -6.8254892 46.94708832 -6.82865906 45.85731506 C-6.82147354 44.71146439 -6.81428802 43.56561371 -6.80688477 42.38504028 C-6.80619743 40.62825706 -6.80619743 40.62825706 -6.80549622 38.83598328 C-6.80247117 36.35696399 -6.7945774 33.87794666 -6.78222656 31.3989563 C-6.76397572 27.58891117 -6.76171678 23.77910892 -6.76196289 19.96902466 C-6.75704772 17.56602775 -6.75121941 15.1630325 -6.74438477 12.76004028 C-6.74327194 11.61216537 -6.74215912 10.46429047 -6.74101257 9.28163147 C-6.73463272 8.22706253 -6.72825287 7.17249359 -6.72167969 6.08596802 C-6.71786789 5.15268173 -6.71405609 4.21939545 -6.71012878 3.25782776 C-6.43836235 -1.0487228 -3.67255963 0.01613575 0 0 Z " fill="#FDFDFD" transform="translate(493.576416015625,507.8610534667969)"/>
<path d="M0 0 C15.84 0 31.68 0 48 0 C47.34 3.96 46.68 7.92 46 12 C29.665 12.495 29.665 12.495 13 13 C11.35 19.6 9.7 26.2 8 33 C17.9 33 27.8 33 38 33 C37 42 37 42 36 45 C25.77 45 15.54 45 5 45 C4.67 47.97 4.34 50.94 4 54 C3.41640941 57.6829961 2.70664329 61.33876847 2 65 C1.82210937 65.95261719 1.64421875 66.90523437 1.4609375 67.88671875 C1.20183594 69.24216797 1.20183594 69.24216797 0.9375 70.625 C0.70353516 71.85089844 0.70353516 71.85089844 0.46484375 73.1015625 C0 75 0 75 -1 76 C-3.53049402 76.07313567 -6.03304837 76.09247527 -8.5625 76.0625 C-9.27341797 76.05798828 -9.98433594 76.05347656 -10.71679688 76.04882812 C-12.47790013 76.03700864 -14.23896036 76.01907263 -16 76 C-14.46003907 67.33279843 -12.78220359 58.69567195 -11.0625 50.0625 C-10.81048828 48.78181641 -10.55847656 47.50113281 -10.29882812 46.18164062 C-8.93762139 39.34775617 -7.42639233 32.59120091 -5.6940918 25.8425293 C-4.56579448 21.22178864 -3.720263 16.55437599 -2.875 11.875 C-2.54179631 10.03856437 -2.20599151 8.20259818 -1.8671875 6.3671875 C-1.72394043 5.57425293 -1.58069336 4.78131836 -1.43310547 3.96435547 C-1 2 -1 2 0 0 Z " fill="#020202" transform="translate(771,499)"/>
<path d="M0 0 C4.1388918 2.92750883 6.5968039 5.82616532 7.5625 10.8125 C8.47647703 21.73771379 6.00509755 34.34365518 -0.75 43.1875 C-6.99836683 49.29055598 -13.38705196 51.18608709 -21.96484375 51.09765625 C-26.55219447 50.56862528 -29.24859139 48.12439916 -32.25 44.8125 C-36.02319482 38.45764556 -35.23641923 29.55600725 -33.75390625 22.609375 C-30.70984631 12.75723078 -26.35689279 5.19779376 -17.4375 -0.1875 C-11.76602986 -2.07799005 -5.62952086 -1.94474357 0 0 Z " fill="#FCFCFC" transform="translate(931.4375,512.1875)"/>
<path d="M0 0 C4.95 0 9.9 0 15 0 C13.93335625 11.94641 11.38826791 23.61872323 8.56030273 35.25366211 C6.36321944 44.43466998 4.7208292 53.71981397 3 63 C13.89 63 24.78 63 36 63 C35 73 35 73 34 76 C17.83 76 1.66 76 -15 76 C-13.87482691 65.87344216 -13.87482691 65.87344216 -13.1237793 62.20898438 C-12.95657883 61.38362183 -12.78937836 60.55825928 -12.61711121 59.70788574 C-12.4379567 58.84522095 -12.25880219 57.98255615 -12.07421875 57.09375 C-11.88535599 56.170177 -11.69649323 55.246604 -11.50190735 54.29504395 C-11.10289559 52.34831694 -10.70191932 50.40199165 -10.29907227 48.45605469 C-9.69511221 45.53679386 -9.09801631 42.61619473 -8.50195312 39.6953125 C-6.56216416 30.23835201 -4.55851908 20.80651146 -2.27165222 11.42663574 C-1.34734403 7.61421038 -0.64743555 3.88461329 0 0 Z " fill="#050505" transform="translate(832,499)"/>
<path d="M0 0 C5.23296526 -0.04585851 10.46523624 -0.08569905 15.69824219 -0.10986328 C17.47919067 -0.11993431 19.26012257 -0.13359185 21.04101562 -0.15087891 C23.59769783 -0.17507913 26.15416185 -0.18647184 28.7109375 -0.1953125 C29.90944839 -0.21079636 29.90944839 -0.21079636 31.13217163 -0.22659302 C33.0895722 -0.22699226 35.04643077 -0.12241069 37 0 C39.44986932 2.44986932 39.25631311 3.137078 39.265625 6.5 C39.26949219 7.8303125 39.26949219 7.8303125 39.2734375 9.1875 C39.26570312 10.115625 39.25796875 11.04375 39.25 12 C39.26160156 13.3921875 39.26160156 13.3921875 39.2734375 14.8125 C39.27085937 15.699375 39.26828125 16.58625 39.265625 17.5 C39.26336914 18.3146875 39.26111328 19.129375 39.25878906 19.96875 C39 22 39 22 37 24 C34.20315203 24.17525055 31.5067192 24.23143189 28.7109375 24.1953125 C27.48330185 24.19106766 27.48330185 24.19106766 26.23086548 24.18673706 C23.61209607 24.17552532 20.99366636 24.15041929 18.375 24.125 C16.60156743 24.11497147 14.82812951 24.1058454 13.0546875 24.09765625 C8.70288825 24.07728266 4.35182519 24.03813673 0 24 C0 16.08 0 8.16 0 0 Z " fill="#FBFBFB" transform="translate(584,508)"/>
</svg>
